<svg xmlns="http://www.w3.org/2000/svg" viewBox="0 0 360.18 449.91"><defs><style>.a{fill:#fff;}.a,.c{stroke:#fff;stroke-miterlimit:10;}.b,.c{fill:none;}.c{stroke-width:5px;}</style></defs><path class="a" d="M215.18,172.38q0,14.06-.07,23.25t-.08,16v24.46a43.72,43.72,0,0,1-2.38,15,30.51,30.51,0,0,1-7.15,11.28A34.18,34.18,0,0,1,193.71,270a43.77,43.77,0,0,1-16.18,2.75A44.48,44.48,0,0,1,161.46,270a33.06,33.06,0,0,1-11.83-7.62,31.06,31.06,0,0,1-7.17-11.31,43.24,43.24,0,0,1-2.38-15V211.62q0-6.83-.07-16t-.08-23.25h5.86q0,1.83-.07,12.49t-.07,28v22.49q0,16.26,9.26,24.35t22.7,8.12q13.9,0,22.85-7.94t8.93-24.5V212.89q0-17.35-.08-28.42t-.07-12.08Z"/><line class="b" x1="178.24" x2="178.24" y2="449.91"/><circle class="c" cx="180.09" cy="216.8" r="177.59"/></svg>