<svg xmlns="http://www.w3.org/2000/svg" viewBox="0 0 360.19 449.91"><defs><style>.a,.b{fill:none;}.b{stroke:#000;stroke-miterlimit:10;stroke-width:5px;}</style></defs><path d="M876.72,577.56q0,14.06-.07,23.25t-.08,16q0,8.34,0,14.24c0,3.93,0,7.34,0,10.22a43.78,43.78,0,0,1-2.38,15,30.48,30.48,0,0,1-7.15,11.28,34.15,34.15,0,0,1-11.79,7.58,43.91,43.91,0,0,1-16.18,2.75A44.41,44.41,0,0,1,823,675.19a33.16,33.16,0,0,1-11.83-7.62A31.1,31.1,0,0,1,804,656.26a43.28,43.28,0,0,1-2.38-15q0-4.32,0-10.22t0-14.24q0-6.83-.07-16t-.08-23.25h5.86q0,1.83-.07,12.49t-.07,28c0,3.52,0,7.15,0,10.91s0,7.62,0,11.58q0,16.26,9.26,24.35T839.15,673q13.9,0,22.85-7.94t8.93-24.5q0-5.94,0-11.58c0-3.76,0-7.39,0-10.91q0-17.35-.08-28.42t-.07-12.08Z" transform="translate(-661.54 -405.18)"/><line class="a" x1="178.24" x2="178.24" y2="449.91"/><circle class="b" cx="180.09" cy="216.8" r="177.59"/></svg>